<?xml version="1.0" encoding="utf-8"?>
<!-- Generator: Adobe Illustrator 17.0.2, SVG Export Plug-In . SVG Version: 6.00 Build 0)  -->
<!DOCTYPE svg PUBLIC "-//W3C//DTD SVG 1.1//EN" "http://www.w3.org/Graphics/SVG/1.1/DTD/svg11.dtd">
<svg version="1.1" id="Calque_1" xmlns="http://www.w3.org/2000/svg" xmlns:xlink="http://www.w3.org/1999/xlink" x="0px" y="0px"
	 width="100px" height="100px" viewBox="0 0 100 100" enable-background="new 0 0 100 100" xml:space="preserve">
<path fill="#FFFFFF" d="M49.774,1.918c-26.642,0-48.239,21.601-48.239,48.239c0,26.642,21.598,48.235,48.239,48.235
	s48.239-21.594,48.239-48.235C98.014,23.519,76.414,1.918,49.774,1.918z M62.541,49.956h-8.353c0,13.348,0,29.79,0,29.79H41.807
	c0,0,0-16.273,0-29.79h-5.889V39.438h5.889v-6.815c0-4.878,2.315-12.492,12.496-12.492l9.168,0.035v10.216c0,0-5.575,0-6.657,0
	c-1.087,0-2.625,0.543-2.625,2.862v6.196h9.438L62.541,49.956z"/>
</svg>
